<svg width="30" height="30" viewBox="0 0 30 30" fill="none" xmlns="http://www.w3.org/2000/svg">
<g clip-path="url(#clip0_272_2418)">
<path d="M19 14C19.2652 14 19.5196 14.1054 19.7071 14.2929C19.8946 14.4804 20 14.7348 20 15C20 15.2652 19.8946 15.5196 19.7071 15.7071C19.5196 15.8946 19.2652 16 19 16H11C10.7348 16 10.4804 15.8946 10.2929 15.7071C10.1054 15.5196 10 15.2652 10 15C10 14.7348 10.1054 14.4804 10.2929 14.2929C10.4804 14.1054 10.7348 14 11 14H19ZM15 30C6.716 30 0 23.284 0 15C0 6.716 6.716 0 15 0C23.284 0 30 6.716 30 15C30 23.284 23.284 30 15 30ZM15 28C22.18 28 28 22.18 28 15C28 7.82 22.18 2 15 2C7.82 2 2 7.82 2 15C2 22.18 7.82 28 15 28Z" fill="#B0D54E"/>
</g>
<defs>
<clipPath id="clip0_272_2418">
<rect width="30" height="30" fill="white"/>
</clipPath>
</defs>
</svg>
