<svg width="30" height="30" viewBox="0 0 30 30" fill="none" xmlns="http://www.w3.org/2000/svg">
<g clip-path="url(#clip0_272_2428)">
<path d="M16 14H19C19.2652 14 19.5196 14.1054 19.7071 14.2929C19.8946 14.4804 20 14.7348 20 15C20 15.2652 19.8946 15.5196 19.7071 15.7071C19.5196 15.8946 19.2652 16 19 16H16V19C16 19.2652 15.8946 19.5196 15.7071 19.7071C15.5196 19.8946 15.2652 20 15 20C14.7348 20 14.4804 19.8946 14.2929 19.7071C14.1054 19.5196 14 19.2652 14 19V16H11C10.7348 16 10.4804 15.8946 10.2929 15.7071C10.1054 15.5196 10 15.2652 10 15C10 14.7348 10.1054 14.4804 10.2929 14.2929C10.4804 14.1054 10.7348 14 11 14H14V11C14 10.7348 14.1054 10.4804 14.2929 10.2929C14.4804 10.1054 14.7348 10 15 10C15.2652 10 15.5196 10.1054 15.7071 10.2929C15.8946 10.4804 16 10.7348 16 11V14ZM15 30C6.716 30 0 23.284 0 15C0 6.716 6.716 0 15 0C23.284 0 30 6.716 30 15C30 23.284 23.284 30 15 30ZM15 28C22.18 28 28 22.18 28 15C28 7.82 22.18 2 15 2C7.82 2 2 7.82 2 15C2 22.18 7.82 28 15 28Z" fill="#737373"/>
</g>
<defs>
<clipPath id="clip0_272_2428">
<rect width="30" height="30" fill="white"/>
</clipPath>
</defs>
</svg>
