<svg width="80" height="80" viewBox="0 0 80 80" fill="none" xmlns="http://www.w3.org/2000/svg">
<path d="M48.532 32.8014L51.468 29.8654" stroke="#B0D54E" stroke-width="2.66667" stroke-miterlimit="10"/>
<path d="M63.4679 31.1987L35.9999 58.6667L17.3333 40.0001L23.9999 33.3334L35.9999 45.3334L46.1346 35.1987" stroke="#B0D54E" stroke-width="2.66667" stroke-miterlimit="10"/>
<path d="M65.1493 20.2107C69.44 25.656 72 32.5293 72 40C72 57.6733 57.6733 72 40 72C22.3267 72 8 57.6733 8 40C8 22.3267 22.3267 8 40 8C46.2373 8 52.0573 9.784 56.9773 12.8707" stroke="#262626" stroke-width="2.66667" stroke-miterlimit="10"/>
<path d="M60.2227 15.1987C60.9653 15.8041 61.68 16.4427 62.364 17.1121" stroke="#262626" stroke-width="2.66667" stroke-miterlimit="10"/>
<path d="M8.59766 19.8013C9.10166 19.0186 9.63499 18.256 10.195 17.5146" stroke="#262626" stroke-width="2.66667" stroke-miterlimit="10"/>
<path d="M12.7708 14.46C19.6694 7.10663 29.3854 2.66663 40.0001 2.66663" stroke="#262626" stroke-width="2.66667" stroke-miterlimit="10"/>
<path d="M71.4028 60.1987C70.8988 60.9814 70.3654 61.7441 69.8054 62.4854" stroke="#262626" stroke-width="2.66667" stroke-miterlimit="10"/>
<path d="M67.2293 65.54C60.3307 72.8934 50.6147 77.3334 40 77.3334" stroke="#262626" stroke-width="2.66667" stroke-miterlimit="10"/>
</svg>
