<svg width="64" height="64" viewBox="0 0 64 64" fill="none" xmlns="http://www.w3.org/2000/svg">
<path d="M24.2422 42.1813L25.7825 39.1019C26.3243 38.0181 27.4326 37.3333 28.6443 37.3333H35.3558C36.5675 37.3333 37.6758 38.0181 38.2177 39.1019L39.7579 42.1813" stroke="#B0D54E" stroke-width="2.13333" stroke-miterlimit="10"/>
<path d="M32.0001 23.4667C34.3563 23.4667 36.2667 25.3771 36.2667 27.7333V28.8C36.2667 31.1563 34.3563 33.0667 32.0001 33.0667C29.6438 33.0667 27.7334 31.1563 27.7334 28.8V27.7333C27.7334 25.3771 29.6438 23.4667 32.0001 23.4667Z" stroke="#B0D54E" stroke-width="2.13333" stroke-miterlimit="10"/>
<path d="M31.9998 11.7333C34.9454 11.7333 37.3332 9.34551 37.3332 6.39999C37.3332 3.45447 34.9454 1.06666 31.9998 1.06666C29.0543 1.06666 26.6665 3.45447 26.6665 6.39999C26.6665 9.34551 29.0543 11.7333 31.9998 11.7333Z" stroke="#262626" stroke-width="2.13333" stroke-miterlimit="10"/>
<path d="M31.9998 62.9333C34.9454 62.9333 37.3332 60.5455 37.3332 57.6C37.3332 54.6545 34.9454 52.2667 31.9998 52.2667C29.0543 52.2667 26.6665 54.6545 26.6665 57.6C26.6665 60.5455 29.0543 62.9333 31.9998 62.9333Z" stroke="#262626" stroke-width="2.13333" stroke-miterlimit="10"/>
<path d="M32 44.8V52.2667" stroke="#262626" stroke-width="2.13333" stroke-miterlimit="10"/>
<path d="M32 11.7333V19.2" stroke="#262626" stroke-width="2.13333" stroke-miterlimit="10"/>
<path d="M43.1147 38.352L49.7697 42.1547" stroke="#262626" stroke-width="2.13333" stroke-miterlimit="10"/>
<path d="M14.2305 21.8464L20.8843 25.648" stroke="#262626" stroke-width="2.13333" stroke-miterlimit="10"/>
<path d="M32.0002 44.8C39.0694 44.8 44.8002 39.0692 44.8002 32C44.8002 24.9307 39.0694 19.2 32.0002 19.2C24.931 19.2 19.2002 24.9307 19.2002 32C19.2002 39.0692 24.931 44.8 32.0002 44.8Z" stroke="#262626" stroke-width="2.13333" stroke-miterlimit="10"/>
<path d="M9.59994 24.5333C12.5455 24.5333 14.9333 22.1455 14.9333 19.2C14.9333 16.2545 12.5455 13.8667 9.59994 13.8667C6.65442 13.8667 4.2666 16.2545 4.2666 19.2C4.2666 22.1455 6.65442 24.5333 9.59994 24.5333Z" stroke="#262626" stroke-width="2.13333" stroke-miterlimit="10"/>
<path d="M54.3997 50.1333C57.3453 50.1333 59.7331 47.7455 59.7331 44.8C59.7331 41.8545 57.3453 39.4667 54.3997 39.4667C51.4542 39.4667 49.0664 41.8545 49.0664 44.8C49.0664 47.7455 51.4542 50.1333 54.3997 50.1333Z" stroke="#262626" stroke-width="2.13333" stroke-miterlimit="10"/>
<path d="M43.1147 25.648L49.7697 21.8453" stroke="#262626" stroke-width="2.13333" stroke-miterlimit="10"/>
<path d="M14.2305 42.1536L20.8843 38.352" stroke="#262626" stroke-width="2.13333" stroke-miterlimit="10"/>
<path d="M9.59994 50.1333C12.5455 50.1333 14.9333 47.7455 14.9333 44.8C14.9333 41.8545 12.5455 39.4667 9.59994 39.4667C6.65442 39.4667 4.2666 41.8545 4.2666 44.8C4.2666 47.7455 6.65442 50.1333 9.59994 50.1333Z" stroke="#262626" stroke-width="2.13333" stroke-miterlimit="10"/>
<path d="M54.3997 24.5333C57.3453 24.5333 59.7331 22.1455 59.7331 19.2C59.7331 16.2545 57.3453 13.8667 54.3997 13.8667C51.4542 13.8667 49.0664 16.2545 49.0664 19.2C49.0664 22.1455 51.4542 24.5333 54.3997 24.5333Z" stroke="#262626" stroke-width="2.13333" stroke-miterlimit="10"/>
<path d="M9.60013 27.7333H7.4668V29.8667H9.60013V27.7333Z" fill="#B0D54E"/>
<path d="M9.60013 34.1333H7.4668V36.2667H9.60013V34.1333Z" fill="#B0D54E"/>
<path d="M56.5332 27.7333H54.3999V29.8667H56.5332V27.7333Z" fill="#B0D54E"/>
<path d="M56.5332 34.1333H54.3999V36.2667H56.5332V34.1333Z" fill="#B0D54E"/>
<path d="M19.1997 12.8H17.0664V14.9333H19.1997V12.8Z" fill="#B0D54E"/>
<path d="M24.5332 10.6667H22.3999V12.8H24.5332V10.6667Z" fill="#B0D54E"/>
<path d="M41.6001 10.6667H39.4668V12.8H41.6001V10.6667Z" fill="#B0D54E"/>
<path d="M46.9331 12.8H44.7998V14.9333H46.9331V12.8Z" fill="#B0D54E"/>
<path d="M46.9331 49.0667H44.7998V51.2H46.9331V49.0667Z" fill="#B0D54E"/>
<path d="M41.6001 51.2H39.4668V53.3333H41.6001V51.2Z" fill="#B0D54E"/>
<path d="M24.5332 51.2H22.3999V53.3333H24.5332V51.2Z" fill="#B0D54E"/>
<path d="M19.1997 49.0667H17.0664V51.2H19.1997V49.0667Z" fill="#B0D54E"/>
</svg>
