<svg width="64" height="64" viewBox="0 0 64 64" fill="none" xmlns="http://www.w3.org/2000/svg">
<path d="M42.6668 33.0667C42.6668 38.9589 37.8882 43.7365 31.9948 43.7333C25.9084 43.7301 21.3335 38.56 21.3335 32.7008V15.9979C21.3335 15.4101 21.8103 14.9333 22.398 14.9333H41.6023C42.19 14.9333 42.6668 15.4101 42.6668 15.9979V33.0667Z" stroke="#262626" stroke-width="2.13333" stroke-miterlimit="10"/>
<path d="M21.3335 20.2667H26.6668" stroke="#262626" stroke-width="2.13333" stroke-miterlimit="10"/>
<path d="M28.7998 20.2667H30.9331" stroke="#262626" stroke-width="2.13333" stroke-miterlimit="10"/>
<path d="M33.0664 20.2667H42.6664" stroke="#262626" stroke-width="2.13333" stroke-miterlimit="10"/>
<path d="M28.7998 43.232V53.3333" stroke="#262626" stroke-width="2.13333" stroke-miterlimit="10"/>
<path d="M35.2002 43.2448V53.3333" stroke="#262626" stroke-width="2.13333" stroke-miterlimit="10"/>
<path d="M20.5355 53.3333H43.4645C43.9115 53.3333 44.3115 53.6107 44.4683 54.0288L46.864 60.4181C47.1264 61.1189 46.6091 61.8667 45.8603 61.8667H18.1397C17.3909 61.8667 16.8736 61.1189 17.136 60.4181L19.5317 54.0288C19.6885 53.6107 20.0885 53.3333 20.5355 53.3333Z" stroke="#262626" stroke-width="2.13333" stroke-miterlimit="10"/>
<path d="M21.3332 24.5333C21.3332 24.5333 20.2665 19.2 15.9998 19.2C13.0548 19.2 10.6665 21.5883 10.6665 24.5333C10.6665 35.2 21.8942 36.2123 21.8942 36.2123" stroke="#262626" stroke-width="2.13333" stroke-miterlimit="10"/>
<path d="M42.6664 24.5333C42.6664 24.5333 43.7331 19.2 47.9998 19.2C50.9448 19.2 53.3331 21.5883 53.3331 24.5333C53.3331 35.2 42.2163 36.2123 42.2163 36.2123" stroke="#262626" stroke-width="2.13333" stroke-miterlimit="10"/>
<path d="M17.0664 6.4H14.9331V8.53333H17.0664V6.4Z" fill="#B0D54E"/>
<path d="M24.5332 2.13333H22.3999V4.26666H24.5332V2.13333Z" fill="#B0D54E"/>
<path d="M6.39994 27.7333H4.2666V29.8667H6.39994V27.7333Z" fill="#B0D54E"/>
<path d="M7.46683 36.2667H5.3335V38.4H7.46683V36.2667Z" fill="#B0D54E"/>
<path d="M7.46683 19.2H5.3335V21.3333H7.46683V19.2Z" fill="#B0D54E"/>
<path d="M11.7334 11.7333H9.6001V13.8667H11.7334V11.7333Z" fill="#B0D54E"/>
<path d="M11.7334 43.7333H9.6001V45.8667H11.7334V43.7333Z" fill="#B0D54E"/>
<path d="M17.0664 49.0667H14.9331V51.2H17.0664V49.0667Z" fill="#B0D54E"/>
<path d="M33.0664 1.06667H30.9331V3.2H33.0664V1.06667Z" fill="#B0D54E"/>
<path d="M49.0664 6.4H46.9331V8.53333H49.0664V6.4Z" fill="#B0D54E"/>
<path d="M41.6001 2.13333H39.4668V4.26666H41.6001V2.13333Z" fill="#B0D54E"/>
<path d="M59.7334 27.7333H57.6001V29.8667H59.7334V27.7333Z" fill="#B0D54E"/>
<path d="M58.6665 36.2667H56.5332V38.4H58.6665V36.2667Z" fill="#B0D54E"/>
<path d="M58.6665 19.2H56.5332V21.3333H58.6665V19.2Z" fill="#B0D54E"/>
<path d="M54.3999 11.7333H52.2666V13.8667H54.3999V11.7333Z" fill="#B0D54E"/>
<path d="M54.3999 43.7333H52.2666V45.8667H54.3999V43.7333Z" fill="#B0D54E"/>
<path d="M49.0664 49.0667H46.9331V51.2H49.0664V49.0667Z" fill="#B0D54E"/>
<path d="M28.7998 26.6667H31.9998V34.1333" stroke="#B0D54E" stroke-width="2.13333" stroke-miterlimit="10"/>
<path d="M35.1998 34.1333H28.7998" stroke="#B0D54E" stroke-width="2.13333" stroke-miterlimit="10"/>
</svg>
