<svg width="64" height="64" viewBox="0 0 64 64" fill="none" xmlns="http://www.w3.org/2000/svg">
<path d="M6.23584 41.7067L6.58357 43.584" stroke="#262626" stroke-width="2.13333" stroke-miterlimit="10"/>
<path d="M30.9622 34.4352C30.6422 34.2432 30.2667 34.1333 29.8667 34.1333C28.6881 34.1333 27.7334 35.088 27.7334 36.2667V49.0667C27.7334 50.2453 28.6881 51.2 29.8667 51.2C30.2678 51.2 30.6422 51.0891 30.9633 50.8971L41.6299 44.4971C42.2507 44.1248 42.6667 43.4443 42.6667 42.6667C42.6667 41.8891 42.2507 41.2085 41.6289 40.8352L30.9622 34.4352Z" stroke="#B0D54E" stroke-width="2.13333" stroke-miterlimit="10"/>
<path d="M49.0176 25.4549C49.0496 25.152 49.0667 24.8448 49.0667 24.5333C49.0667 19.8208 45.2459 16 40.5333 16C35.8208 16 32 19.8208 32 24.5333C32 24.8437 32.0171 25.1499 32.0491 25.4517" stroke="#B0D54E" stroke-width="2.13333" stroke-miterlimit="10"/>
<path d="M49.0669 24.5451L52.4141 2.24426" stroke="#B0D54E" stroke-width="2.13333" stroke-miterlimit="10"/>
<path d="M51.552 7.98293C50.3382 16.0651 55.7515 16.0224 57.0848 21.4336C57.9744 19.6896 58.6667 17.0667 58.6667 13.8667C58.6667 8.53333 52.2667 6.4 52.2667 3.22666" stroke="#B0D54E" stroke-width="2.13333" stroke-miterlimit="10"/>
<path d="M40.5333 20.2667C38.177 20.2667 36.2666 22.1771 36.2666 24.5333" stroke="#B0D54E" stroke-width="2.13333" stroke-miterlimit="10"/>
<path d="M10.6665 26.6667H8.5332V28.8H10.6665V26.6667Z" fill="#262626"/>
<path d="M14.9331 26.6667H12.7998V28.8H14.9331V26.6667Z" fill="#262626"/>
<path d="M19.2002 26.6667H17.0669V28.8H19.2002V26.6667Z" fill="#262626"/>
<path d="M17.0669 60.8H36.2669" stroke="#262626" stroke-width="2.13333" stroke-miterlimit="10"/>
<path d="M38.3999 60.8H44.7999" stroke="#262626" stroke-width="2.13333" stroke-miterlimit="10"/>
<path d="M7.04233 46.0587L8.57833 54.3552C8.80766 55.5947 9.89459 56.5333 11.2002 56.5333H52.8002C54.1015 56.5333 55.1853 55.6011 55.4199 54.368L59.6866 31.968C59.7175 31.8059 59.7335 31.6384 59.7335 31.4667C59.7335 29.9936 58.5399 28.8 57.0669 28.8H30.1261C29.277 28.8 28.4631 28.4629 27.8637 27.8624L23.3378 23.3365C22.7373 22.7371 21.9234 22.4 21.0743 22.4H5.86686C4.3938 22.4 3.2002 23.5936 3.2002 25.0667C3.2002 25.2331 3.21513 25.3963 3.245 25.5552L5.805 39.3813" stroke="#262626" stroke-width="2.13333" stroke-miterlimit="10"/>
<path d="M30.5034 16.6368L26.5375 12.6709C25.937 12.0704 25.1231 11.7333 24.274 11.7333H9.06657C7.5935 11.7333 6.3999 12.9269 6.3999 14.4C6.3999 14.5664 6.41484 14.7296 6.4447 14.8885L7.2127 19.0336" stroke="#262626" stroke-width="2.13333" stroke-miterlimit="10"/>
</svg>
