<svg width="590" height="568" viewBox="0 0 590 568" fill="none" xmlns="http://www.w3.org/2000/svg">
<g clip-path="url(#clip0_309_2572)">
<path d="M323 539.804L380.106 518" stroke="#262626" stroke-width="4.15314" stroke-linecap="round" stroke-linejoin="round"/>
<path d="M31 235L120.292 469.133" stroke="#262626" stroke-width="4.15314" stroke-linecap="round" stroke-linejoin="round"/>
<path d="M279.714 30L179 85.0291" stroke="#262626" stroke-width="4.15314" stroke-linecap="round" stroke-linejoin="round"/>
<path d="M39 200.85L144.905 110" stroke="#262626" stroke-width="4.15314" stroke-linecap="round" stroke-linejoin="round"/>
<path d="M393.756 57.072L319 28" stroke="#262626" stroke-width="4.15314" stroke-linecap="round" stroke-linejoin="round"/>
<path d="M461.225 117.34L428 81" stroke="#262626" stroke-width="4.15314" stroke-linecap="round" stroke-linejoin="round"/>
<path d="M540.685 155.613L495 139" stroke="#262626" stroke-width="4.15314" stroke-linecap="round" stroke-linejoin="round"/>
<path d="M502.952 327L450 452.113" stroke="#262626" stroke-width="4.15314" stroke-linecap="round" stroke-linejoin="round"/>
<path d="M545.527 448L477 478.629" stroke="#262626" stroke-width="4.15314" stroke-linecap="round" stroke-linejoin="round"/>
<path d="M183 92.9571L392.214 67" stroke="#262626" stroke-width="4.15314" stroke-linecap="round" stroke-linejoin="round"/>
<path d="M154.689 396L136 469.199" stroke="#262626" stroke-width="4.15314" stroke-linecap="round" stroke-linejoin="round"/>
<path d="M39 230L146.462 358.228" stroke="#262626" stroke-width="4.15314" stroke-linecap="round" stroke-linejoin="round"/>
<path d="M289.288 528.611L173 390" stroke="#262626" stroke-width="4.15314" stroke-linecap="round" stroke-linejoin="round"/>
<path d="M216 214.979L282.45 202" stroke="#262626" stroke-width="4.15314" stroke-linecap="round" stroke-linejoin="round"/>
<path d="M406.991 85L353 264.623" stroke="#262626" stroke-width="4.15314" stroke-linecap="round" stroke-linejoin="round"/>
<path d="M506.919 227.756L482 153" stroke="#262626" stroke-width="4.15314" stroke-linecap="round" stroke-linejoin="round"/>
<path d="M316.345 262.608L307 219" stroke="#262626" stroke-width="4.15314" stroke-linecap="round" stroke-linejoin="round"/>
<path d="M323 206L473.551 263.106" stroke="#262626" stroke-width="4.15314" stroke-linecap="round" stroke-linejoin="round"/>
<path d="M560.919 418.773L536 330" stroke="#262626" stroke-width="4.15314" stroke-linecap="round" stroke-linejoin="round"/>
<path d="M402.149 454.876L371 404" stroke="#262626" stroke-width="4.15314" stroke-linecap="round" stroke-linejoin="round"/>
<path d="M283.42 539.089L150 496" stroke="#262626" stroke-width="4.15314" stroke-linecap="round" stroke-linejoin="round"/>
<path d="M254.756 354L180 370.613" stroke="#262626" stroke-width="4.15314" stroke-linecap="round" stroke-linejoin="round"/>
<path d="M555.536 182L541 228.723" stroke="#262626" stroke-width="4.15314" stroke-linecap="round" stroke-linejoin="round"/>
<path d="M302.766 219.531C308.273 219.531 313.555 217.344 317.449 213.449C321.344 209.555 323.531 204.273 323.531 198.766C323.531 193.258 321.344 187.976 317.449 184.082C313.555 180.188 308.273 178 302.766 178C297.258 178 291.976 180.188 288.082 184.082C284.188 187.976 282 193.258 282 198.766C282 204.273 284.188 209.555 288.082 213.449C291.976 217.344 297.258 219.531 302.766 219.531Z" stroke="#262626" stroke-width="4.15314" stroke-linecap="round" stroke-linejoin="round"/>
<path d="M375 276.152L462.735 150" stroke="#262626" stroke-width="4.15314" stroke-linecap="round" stroke-linejoin="round"/>
<path d="M199 249L267.527 294.685" stroke="#262626" stroke-width="4.15314" stroke-linecap="round" stroke-linejoin="round"/>
<path d="M162.496 158.531L162 117" stroke="#262626" stroke-width="4.15314" stroke-linecap="round" stroke-linejoin="round"/>
<path d="M198 172.42L286.254 39" stroke="#262626" stroke-width="4.15314" stroke-linecap="round" stroke-linejoin="round"/>
<path d="M111.488 220.191L44 215" stroke="#262626" stroke-width="4.15314" stroke-linecap="round" stroke-linejoin="round"/>
<path d="M163.077 264L161 354.331" stroke="#262626" stroke-width="4.15314" stroke-linecap="round" stroke-linejoin="round"/>
<path d="M474.766 153.531C480.273 153.531 485.555 151.344 489.449 147.449C493.344 143.555 495.531 138.273 495.531 132.766C495.531 127.258 493.344 121.976 489.449 118.082C485.555 114.188 480.273 112 474.766 112C469.258 112 463.976 114.188 460.082 118.082C456.188 121.976 454 127.258 454 132.766C454 138.273 456.188 143.555 460.082 147.449C463.976 151.344 469.258 153.531 474.766 153.531Z" stroke="#262626" stroke-width="4.15314" stroke-linecap="round" stroke-linejoin="round"/>
<path d="M561.766 182.531C567.273 182.531 572.555 180.344 576.449 176.449C580.344 172.555 582.531 167.273 582.531 161.766C582.531 156.258 580.344 150.976 576.449 147.082C572.555 143.188 567.273 141 561.766 141C556.258 141 550.976 143.188 547.082 147.082C543.188 150.976 541 156.258 541 161.766C541 167.273 543.188 172.555 547.082 176.449C550.976 180.344 556.258 182.531 561.766 182.531Z" stroke="#262626" stroke-width="4.15314" stroke-linecap="round" stroke-linejoin="round"/>
<path d="M565.766 459.531C571.273 459.531 576.555 457.344 580.449 453.449C584.344 449.555 586.531 444.273 586.531 438.766C586.531 433.258 584.344 427.976 580.449 424.082C576.555 420.188 571.273 418 565.766 418C560.258 418 554.976 420.188 551.082 424.082C547.188 427.976 545 433.258 545 438.766C545 444.273 547.188 449.555 551.082 453.449C554.976 457.344 560.258 459.531 565.766 459.531Z" stroke="#262626" stroke-width="4.15314" stroke-linecap="round" stroke-linejoin="round"/>
<path d="M412.766 86.5314C418.273 86.5314 423.555 84.3436 427.449 80.4492C431.344 76.5549 433.531 71.2731 433.531 65.7657C433.531 60.2583 431.344 54.9765 427.449 51.0821C423.555 47.1878 418.273 45 412.766 45C407.258 45 401.976 47.1878 398.082 51.0821C394.188 54.9765 392 60.2583 392 65.7657C392 71.2731 394.188 76.5549 398.082 80.4492C401.976 84.3436 407.258 86.5314 412.766 86.5314Z" stroke="#262626" stroke-width="4.15314" stroke-linecap="round" stroke-linejoin="round"/>
<path d="M161.766 117.531C167.273 117.531 172.555 115.344 176.449 111.449C180.344 107.555 182.531 102.273 182.531 96.7657C182.531 91.2583 180.344 85.9764 176.449 82.0821C172.555 78.1878 167.273 76 161.766 76C156.258 76 150.976 78.1878 147.082 82.0821C143.188 85.9764 141 91.2583 141 96.7657C141 102.273 143.188 107.555 147.082 111.449C150.976 115.344 156.258 117.531 161.766 117.531Z" stroke="#262626" stroke-width="4.15314" stroke-linecap="round" stroke-linejoin="round"/>
<path d="M23.7657 235.531C29.2731 235.531 34.5549 233.344 38.4492 229.449C42.3436 225.555 44.5314 220.273 44.5314 214.766C44.5314 209.258 42.3436 203.976 38.4492 200.082C34.5549 196.188 29.2731 194 23.7657 194C18.2583 194 12.9765 196.188 9.08213 200.082C5.18781 203.976 3 209.258 3 214.766C3 220.273 5.18781 225.555 9.08213 229.449C12.9765 233.344 18.2583 235.531 23.7657 235.531Z" stroke="#262626" stroke-width="4.15314" stroke-linecap="round" stroke-linejoin="round"/>
<path d="M298.766 41.5314C304.273 41.5314 309.555 39.3436 313.449 35.4492C317.344 31.5549 319.531 26.2731 319.531 20.7657C319.531 15.2583 317.344 9.97645 313.449 6.08213C309.555 2.18781 304.273 0 298.766 0C293.258 0 287.976 2.18781 284.082 6.08213C280.188 9.97645 278 15.2583 278 20.7657C278 26.2731 280.188 31.5549 284.082 35.4492C287.976 39.3436 293.258 41.5314 298.766 41.5314Z" stroke="#262626" stroke-width="4.15314" stroke-linecap="round" stroke-linejoin="round"/>
<path d="M302.766 567.531C308.273 567.531 313.555 565.344 317.449 561.449C321.344 557.555 323.531 552.273 323.531 546.766C323.531 541.258 321.344 535.976 317.449 532.082C313.555 528.188 308.273 526 302.766 526C297.258 526 291.976 528.188 288.082 532.082C284.188 535.976 282 541.258 282 546.766C282 552.273 284.188 557.555 288.082 561.449C291.976 565.344 297.258 567.531 302.766 567.531Z" stroke="#262626" stroke-width="4.15314" stroke-linecap="round" stroke-linejoin="round"/>
<path d="M130.766 510.531C136.273 510.531 141.555 508.344 145.449 504.449C149.344 500.555 151.531 495.273 151.531 489.766C151.531 484.258 149.344 478.976 145.449 475.082C141.555 471.188 136.273 469 130.766 469C125.258 469 119.976 471.188 116.082 475.082C112.188 478.976 110 484.258 110 489.766C110 495.273 112.188 500.555 116.082 504.449C119.976 508.344 125.258 510.531 130.766 510.531Z" stroke="#262626" stroke-width="4.15314" stroke-linecap="round" stroke-linejoin="round"/>
<path d="M159.766 395.531C165.273 395.531 170.555 393.344 174.449 389.449C178.344 385.555 180.531 380.273 180.531 374.766C180.531 369.258 178.344 363.976 174.449 360.082C170.555 356.188 165.273 354 159.766 354C154.258 354 148.976 356.188 145.082 360.082C141.188 363.976 139 369.258 139 374.766C139 380.273 141.188 385.555 145.082 389.449C148.976 393.344 154.258 395.531 159.766 395.531Z" stroke="#262626" stroke-width="4.15314" stroke-linecap="round" stroke-linejoin="round"/>
<path d="M163.433 263.867C177.34 263.867 190.676 258.342 200.509 248.509C210.342 238.676 215.867 225.34 215.867 211.433C215.867 197.527 210.342 184.191 200.509 174.357C190.676 164.524 177.34 159 163.433 159C149.527 159 136.191 164.524 126.357 174.357C116.524 184.191 111 197.527 111 211.433C111 225.34 116.524 238.676 126.357 248.509C136.191 258.342 149.527 263.867 163.433 263.867Z" stroke="#262626" stroke-width="4.15314" stroke-linecap="round" stroke-linejoin="round"/>
<path d="M146 210.542C146 212.778 146.43 214.992 147.265 217.058C148.099 219.124 149.323 221.001 150.866 222.582C152.408 224.164 154.24 225.418 156.255 226.274C158.271 227.129 160.431 227.57 162.613 227.57C164.794 227.57 166.954 227.129 168.97 226.274C170.985 225.418 172.817 224.164 174.359 222.582C175.902 221.001 177.126 219.124 177.961 217.058C178.795 214.992 179.225 212.778 179.225 210.542V202.028C179.225 197.512 177.475 193.181 174.359 189.987C171.244 186.794 167.018 185 162.613 185C158.207 185 153.981 186.794 150.866 189.987C147.75 193.181 146 197.512 146 202.028V210.542Z" stroke="#B0D54E" stroke-width="4.15314" stroke-linecap="round" stroke-linejoin="round"/>
<path d="M198.565 250.07C189.013 258.614 176.625 263.34 163.783 263.34C150.94 263.34 138.552 258.614 129 250.07C131.86 243.243 136.684 237.41 142.867 233.305C149.049 229.2 156.313 227.006 163.745 227C171.177 226.994 178.445 229.175 184.634 233.27C190.823 237.365 195.658 243.19 198.529 250.012" stroke="#B0D54E" stroke-width="4.15314" stroke-linecap="round" stroke-linejoin="round"/>
<path d="M146 200.118C146.448 196.618 147.936 193.339 150.267 190.72C152.597 188.101 155.659 186.266 159.043 185.459C162.428 184.653 165.974 184.913 169.209 186.205C172.443 187.498 175.213 189.761 177.149 192.693C173.103 196.675 168.07 199.468 162.585 200.775C157.1 202.083 151.368 201.855 146 200.118Z" stroke="#B0D54E" stroke-width="4.15314" stroke-linecap="round" stroke-linejoin="round"/>
<path d="M330.833 415.666C373.267 415.666 407.666 381.267 407.666 338.833C407.666 296.399 373.267 262 330.833 262C288.399 262 254 296.399 254 338.833C254 381.267 288.399 415.666 330.833 415.666Z" stroke="#262626" stroke-width="4.15314" stroke-linecap="round" stroke-linejoin="round"/>
<path d="M305 337.378C305 343.987 307.625 350.325 312.299 354.998C316.972 359.672 323.31 362.297 329.919 362.297C336.528 362.297 342.866 359.672 347.539 354.998C352.212 350.325 354.838 343.987 354.838 337.378V324.919C354.838 318.31 352.212 311.972 347.539 307.299C342.866 302.625 336.528 300 329.919 300C323.31 300 316.972 302.625 312.299 307.299C307.625 311.972 305 318.31 305 324.919V337.378Z" stroke="#B0D54E" stroke-width="4.15314" stroke-linecap="round" stroke-linejoin="round"/>
<path d="M305 322.73C305.651 317.699 307.831 312.985 311.249 309.22C314.668 305.454 319.161 302.816 324.128 301.658C329.095 300.5 334.3 300.877 339.045 302.739C343.791 304.601 347.852 307.86 350.685 312.078C344.75 317.795 337.368 321.805 329.323 323.681C321.278 325.557 312.872 325.228 305 322.73Z" stroke="#B0D54E" stroke-width="4.15314" stroke-linecap="round" stroke-linejoin="round"/>
<path d="M523.433 329.867C537.34 329.867 550.676 324.343 560.509 314.509C570.342 304.676 575.867 291.34 575.867 277.433C575.867 263.527 570.342 250.191 560.509 240.357C550.676 230.524 537.34 225 523.433 225C509.527 225 496.191 230.524 486.357 240.357C476.524 250.191 471 263.527 471 277.433C471 291.34 476.524 304.676 486.357 314.509C496.191 324.343 509.527 329.867 523.433 329.867Z" stroke="#262626" stroke-width="4.15314" stroke-linecap="round" stroke-linejoin="round"/>
<path d="M506 275.686C506 280.164 507.75 284.458 510.865 287.625C513.98 290.791 518.205 292.57 522.611 292.57C527.016 292.57 531.241 290.791 534.356 287.625C537.471 284.458 539.222 280.164 539.222 275.686V267.231C539.267 264.985 538.872 262.753 538.058 260.664C537.244 258.576 536.029 256.674 534.482 255.069C532.936 253.464 531.09 252.189 529.053 251.319C527.016 250.448 524.828 250 522.618 250C520.408 250 518.22 250.448 516.183 251.319C514.146 252.189 512.3 253.464 510.753 255.069C509.207 256.674 507.991 258.576 507.178 260.664C506.364 262.753 505.968 264.985 506.014 267.231L506 275.686Z" stroke="#B0D54E" stroke-width="4.15314" stroke-linecap="round" stroke-linejoin="round"/>
<path d="M558.565 316.071C549.012 324.614 536.624 329.34 523.782 329.34C510.941 329.34 498.553 324.614 489 316.071C491.859 309.244 496.683 303.41 502.865 299.305C509.047 295.2 516.31 293.006 523.742 293C531.173 292.994 538.44 295.175 544.628 299.27C550.817 303.365 555.651 309.191 558.522 316.014" stroke="#B0D54E" stroke-width="4.15314" stroke-linecap="round" stroke-linejoin="round"/>
<path d="M506 265.112C506.447 261.613 507.935 258.335 510.266 255.717C512.597 253.099 515.659 251.264 519.044 250.458C522.429 249.652 525.976 249.914 529.211 251.207C532.445 252.5 535.215 256.841 537.149 259.773C533.105 263.755 528.071 264.472 522.585 265.778C517.099 267.084 511.367 266.854 506 265.112Z" stroke="#B0D54E" stroke-width="4.15314" stroke-linecap="round" stroke-linejoin="round"/>
<path d="M429.433 552.867C436.319 552.867 443.137 551.51 449.499 548.875C455.86 546.24 461.64 542.378 466.509 537.509C471.378 532.64 475.24 526.86 477.875 520.499C480.511 514.137 481.867 507.319 481.867 500.433C481.867 493.548 480.511 486.729 477.875 480.368C475.24 474.006 471.378 468.226 466.509 463.357C461.64 458.489 455.86 454.626 449.499 451.991C443.137 449.356 436.319 448 429.433 448C415.527 448 402.191 453.524 392.357 463.357C382.524 473.191 377 486.527 377 500.433C377 514.34 382.524 527.676 392.357 537.509C402.191 547.343 415.527 552.867 429.433 552.867Z" stroke="#262626" stroke-width="4.15314" stroke-linecap="round" stroke-linejoin="round"/>
<path d="M413.004 497.472C412.958 499.7 413.353 501.916 414.167 503.988C414.981 506.06 416.197 507.948 417.744 509.54C419.291 511.132 421.138 512.397 423.176 513.261C425.213 514.125 427.402 514.57 429.613 514.57C431.823 514.57 434.012 514.125 436.05 513.261C438.088 512.397 439.934 511.132 441.481 509.54C443.028 507.948 444.244 506.06 445.058 503.988C445.872 501.916 446.267 499.7 446.222 497.472V489.097C446.267 486.869 445.872 484.654 445.058 482.582C444.244 480.509 443.028 478.622 441.481 477.029C439.934 475.437 438.088 474.172 436.05 473.308C434.012 472.445 431.823 472 429.613 472C427.402 472 425.213 472.445 423.176 473.308C421.138 474.172 419.291 475.437 417.744 477.029C416.197 478.622 414.981 480.509 414.167 482.582C413.353 484.654 412.958 486.869 413.004 489.097V497.472Z" stroke="#B0D54E" stroke-width="4.15314" stroke-linecap="round" stroke-linejoin="round"/>
<path d="M463.565 539.071C454.013 547.614 441.625 552.34 428.783 552.34C415.94 552.34 403.552 547.614 394 539.071C396.858 532.244 401.682 526.41 407.864 522.305C414.046 518.2 421.31 516.006 428.742 516C436.173 515.994 443.441 518.176 449.63 522.271C455.819 526.366 460.652 532.191 463.522 539.014" stroke="#B0D54E" stroke-width="4.15314" stroke-linecap="round" stroke-linejoin="round"/>
<path d="M413 488.114C413.447 484.614 414.936 481.336 417.266 478.718C419.597 476.099 422.659 474.264 426.044 473.458C429.429 472.652 432.976 472.914 436.211 474.207C439.445 475.501 442.215 477.765 444.149 480.698C440.104 484.679 435.07 487.471 429.585 488.777C424.099 490.083 418.367 489.854 413 488.114Z" stroke="#B0D54E" stroke-width="4.15314" stroke-linecap="round" stroke-linejoin="round"/>
<path d="M546.321 431.297L402 369" stroke="#262626" stroke-width="4.15314" stroke-linecap="round" stroke-linejoin="round"/>
<path d="M320.536 416L306 526.058" stroke="#262626" stroke-width="4.15314" stroke-linecap="round" stroke-linejoin="round"/>
<path d="M316 181.714L399.063 81" stroke="#262626" stroke-width="4.15314" stroke-linecap="round" stroke-linejoin="round"/>
<g clip-path="url(#clip1_309_2572)">
<path d="M407.942 70.0028V59.9827C407.942 59.5456 408.08 59.1194 408.336 58.7637C408.592 58.4079 408.955 58.1403 409.372 57.9982L417.844 55.1139C418.163 55.0053 418.504 54.9738 418.838 55.0218C419.171 55.0699 419.489 55.1962 419.763 55.3903C420.038 55.5843 420.261 55.8405 420.416 56.1374C420.57 56.4344 420.651 56.7636 420.651 57.0976V69.8224C420.651 70.5239 420.414 71.2052 419.978 71.7582C419.542 72.3112 418.933 72.7041 418.246 72.8745C417.558 73.0449 416.834 72.983 416.186 72.6987C415.539 72.4144 415.006 71.924 414.672 71.3054C414.338 70.6867 414.222 69.9753 414.343 69.2841C414.464 68.593 414.815 67.9618 415.34 67.4907C415.865 67.0196 416.534 66.7357 417.24 66.6841C417.946 66.6325 418.65 66.8161 419.239 67.2058V60.6735L409.354 64.1474V72.6193C409.354 73.3208 409.118 74.0022 408.682 74.5551C408.246 75.1081 407.636 75.501 406.949 75.6714C406.262 75.8418 405.537 75.78 404.89 75.4957C404.242 75.2114 403.709 74.721 403.375 74.1023C403.041 73.4837 402.926 72.7723 403.047 72.0811C403.168 71.39 403.519 70.7587 404.044 70.2876C404.568 69.8166 405.237 69.5327 405.943 69.4811C406.65 69.4294 407.353 69.6131 407.942 70.0028ZM406.177 74.3674C406.645 74.3674 407.094 74.1833 407.425 73.8554C407.756 73.5276 407.942 73.083 407.942 72.6193C407.942 72.1557 407.756 71.7111 407.425 71.3833C407.094 71.0554 406.645 70.8712 406.177 70.8712C405.709 70.8712 405.26 71.0554 404.929 71.3833C404.598 71.7111 404.412 72.1557 404.412 72.6193C404.412 73.083 404.598 73.5276 404.929 73.8554C405.26 74.1833 405.709 74.3674 406.177 74.3674ZM417.474 71.5705C417.942 71.5705 418.391 71.3863 418.722 71.0585C419.053 70.7306 419.239 70.286 419.239 69.8224C419.239 69.3588 419.053 68.9141 418.722 68.5863C418.391 68.2585 417.942 68.0743 417.474 68.0743C417.006 68.0743 416.557 68.2585 416.226 68.5863C415.895 68.9141 415.709 69.3588 415.709 69.8224C415.709 70.286 415.895 70.7306 416.226 71.0585C416.557 71.3863 417.006 71.5705 417.474 71.5705ZM419.239 59.1897V57.0976C419.239 56.9863 419.212 56.8766 419.16 56.7777C419.109 56.6788 419.034 56.5935 418.943 56.5288C418.851 56.4642 418.745 56.4221 418.634 56.4061C418.523 56.3901 418.41 56.4007 418.303 56.4368L409.831 59.3212C409.692 59.3685 409.571 59.4576 409.486 59.5761C409.4 59.6945 409.354 59.8364 409.354 59.982V62.6629L419.239 59.1897Z" fill="#262626"/>
</g>
<g clip-path="url(#clip2_309_2572)">
<path d="M469.942 138.003V127.983C469.942 127.546 470.08 127.119 470.336 126.764C470.592 126.408 470.955 126.14 471.372 125.998L479.844 123.114C480.163 123.005 480.504 122.974 480.838 123.022C481.171 123.07 481.489 123.196 481.763 123.39C482.038 123.584 482.261 123.84 482.416 124.137C482.57 124.434 482.651 124.764 482.651 125.098V137.822C482.651 138.524 482.414 139.205 481.978 139.758C481.542 140.311 480.933 140.704 480.246 140.874C479.558 141.045 478.834 140.983 478.186 140.699C477.539 140.414 477.006 139.924 476.672 139.305C476.338 138.687 476.222 137.975 476.343 137.284C476.464 136.593 476.815 135.962 477.34 135.491C477.865 135.02 478.534 134.736 479.24 134.684C479.946 134.632 480.65 134.816 481.239 135.206V128.674L471.354 132.147V140.619C471.354 141.321 471.118 142.002 470.682 142.555C470.246 143.108 469.636 143.501 468.949 143.671C468.262 143.842 467.537 143.78 466.89 143.496C466.242 143.211 465.709 142.721 465.375 142.102C465.041 141.484 464.926 140.772 465.047 140.081C465.168 139.39 465.519 138.759 466.044 138.288C466.568 137.817 467.237 137.533 467.943 137.481C468.65 137.429 469.353 137.613 469.942 138.003ZM468.177 142.367C468.645 142.367 469.094 142.183 469.425 141.855C469.756 141.528 469.942 141.083 469.942 140.619C469.942 140.156 469.756 139.711 469.425 139.383C469.094 139.055 468.645 138.871 468.177 138.871C467.709 138.871 467.26 139.055 466.929 139.383C466.598 139.711 466.412 140.156 466.412 140.619C466.412 141.083 466.598 141.528 466.929 141.855C467.26 142.183 467.709 142.367 468.177 142.367ZM479.474 139.57C479.942 139.57 480.391 139.386 480.722 139.058C481.053 138.731 481.239 138.286 481.239 137.822C481.239 137.359 481.053 136.914 480.722 136.586C480.391 136.258 479.942 136.074 479.474 136.074C479.006 136.074 478.557 136.258 478.226 136.586C477.895 136.914 477.709 137.359 477.709 137.822C477.709 138.286 477.895 138.731 478.226 139.058C478.557 139.386 479.006 139.57 479.474 139.57ZM481.239 127.19V125.098C481.239 124.986 481.212 124.877 481.16 124.778C481.109 124.679 481.034 124.593 480.943 124.529C480.851 124.464 480.745 124.422 480.634 124.406C480.523 124.39 480.41 124.401 480.303 124.437L471.831 127.321C471.692 127.369 471.571 127.458 471.486 127.576C471.4 127.695 471.354 127.836 471.354 127.982V130.663L481.239 127.19Z" fill="#262626"/>
</g>
<path d="M381.844 396.28C367.729 408.971 349.889 415.991 330.914 415.991C311.939 415.991 293.115 408.971 279 396.28C283.224 386.136 290.871 377.469 300.006 371.369C309.141 365.269 319.874 362.009 330.856 362C341.838 361.991 352.577 365.232 361.722 371.316C370.867 377.4 377.603 386.143 381.844 396.28Z" stroke="#B0D54E" stroke-width="4.15314" stroke-linecap="round" stroke-linejoin="round"/>
<path d="M556.942 166.003V155.983C556.942 155.546 557.08 155.119 557.336 154.764C557.592 154.408 557.955 154.14 558.372 153.998L566.844 151.114C567.163 151.005 567.504 150.974 567.838 151.022C568.171 151.07 568.489 151.196 568.763 151.39C569.038 151.584 569.261 151.84 569.416 152.137C569.57 152.434 569.651 152.764 569.651 153.098V165.822C569.651 166.524 569.414 167.205 568.978 167.758C568.542 168.311 567.933 168.704 567.246 168.874C566.558 169.045 565.834 168.983 565.186 168.699C564.539 168.414 564.006 167.924 563.672 167.305C563.338 166.687 563.222 165.975 563.343 165.284C563.464 164.593 563.815 163.962 564.34 163.491C564.865 163.02 565.534 162.736 566.24 162.684C566.946 162.632 567.65 162.816 568.239 163.206V156.674L558.354 160.147V168.619C558.354 169.321 558.118 170.002 557.682 170.555C557.246 171.108 556.636 171.501 555.949 171.671C555.262 171.842 554.537 171.78 553.89 171.496C553.242 171.211 552.709 170.721 552.375 170.102C552.041 169.484 551.926 168.772 552.047 168.081C552.168 167.39 552.519 166.759 553.044 166.288C553.568 165.817 554.237 165.533 554.943 165.481C555.65 165.429 556.353 165.613 556.942 166.003ZM555.177 170.367C555.645 170.367 556.094 170.183 556.425 169.855C556.756 169.528 556.942 169.083 556.942 168.619C556.942 168.156 556.756 167.711 556.425 167.383C556.094 167.055 555.645 166.871 555.177 166.871C554.709 166.871 554.26 167.055 553.929 167.383C553.598 167.711 553.412 168.156 553.412 168.619C553.412 169.083 553.598 169.528 553.929 169.855C554.26 170.183 554.709 170.367 555.177 170.367ZM566.474 167.57C566.942 167.57 567.391 167.386 567.722 167.058C568.053 166.731 568.239 166.286 568.239 165.822C568.239 165.359 568.053 164.914 567.722 164.586C567.391 164.258 566.942 164.074 566.474 164.074C566.006 164.074 565.557 164.258 565.226 164.586C564.895 164.914 564.709 165.359 564.709 165.822C564.709 166.286 564.895 166.731 565.226 167.058C565.557 167.386 566.006 167.57 566.474 167.57ZM568.239 155.19V153.098C568.239 152.986 568.212 152.877 568.16 152.778C568.109 152.679 568.034 152.593 567.943 152.529C567.851 152.464 567.745 152.422 567.634 152.406C567.523 152.39 567.41 152.401 567.303 152.437L558.831 155.321C558.692 155.369 558.571 155.458 558.486 155.576C558.4 155.695 558.354 155.836 558.354 155.982V158.663L568.239 155.19Z" fill="#262626"/>
<path d="M559.942 444.003V433.983C559.942 433.546 560.08 433.119 560.336 432.764C560.592 432.408 560.955 432.14 561.372 431.998L569.844 429.114C570.163 429.005 570.504 428.974 570.838 429.022C571.171 429.07 571.489 429.196 571.763 429.39C572.038 429.584 572.261 429.84 572.416 430.137C572.57 430.434 572.651 430.764 572.651 431.098V443.822C572.651 444.524 572.414 445.205 571.978 445.758C571.542 446.311 570.933 446.704 570.246 446.874C569.558 447.045 568.834 446.983 568.186 446.699C567.539 446.414 567.006 445.924 566.672 445.305C566.338 444.687 566.222 443.975 566.343 443.284C566.464 442.593 566.815 441.962 567.34 441.491C567.865 441.02 568.534 440.736 569.24 440.684C569.946 440.632 570.65 440.816 571.239 441.206V434.674L561.354 438.147V446.619C561.354 447.321 561.118 448.002 560.682 448.555C560.246 449.108 559.636 449.501 558.949 449.671C558.262 449.842 557.537 449.78 556.89 449.496C556.242 449.211 555.709 448.721 555.375 448.102C555.041 447.484 554.926 446.772 555.047 446.081C555.168 445.39 555.519 444.759 556.044 444.288C556.568 443.817 557.237 443.533 557.943 443.481C558.65 443.429 559.353 443.613 559.942 444.003ZM558.177 448.367C558.645 448.367 559.094 448.183 559.425 447.855C559.756 447.528 559.942 447.083 559.942 446.619C559.942 446.156 559.756 445.711 559.425 445.383C559.094 445.055 558.645 444.871 558.177 444.871C557.709 444.871 557.26 445.055 556.929 445.383C556.598 445.711 556.412 446.156 556.412 446.619C556.412 447.083 556.598 447.528 556.929 447.855C557.26 448.183 557.709 448.367 558.177 448.367ZM569.474 445.57C569.942 445.57 570.391 445.386 570.722 445.058C571.053 444.731 571.239 444.286 571.239 443.822C571.239 443.359 571.053 442.914 570.722 442.586C570.391 442.258 569.942 442.074 569.474 442.074C569.006 442.074 568.557 442.258 568.226 442.586C567.895 442.914 567.709 443.359 567.709 443.822C567.709 444.286 567.895 444.731 568.226 445.058C568.557 445.386 569.006 445.57 569.474 445.57ZM571.239 433.19V431.098C571.239 430.986 571.212 430.877 571.16 430.778C571.109 430.679 571.034 430.593 570.943 430.529C570.851 430.464 570.745 430.422 570.634 430.406C570.523 430.39 570.41 430.401 570.303 430.437L561.831 433.321C561.692 433.369 561.571 433.458 561.486 433.576C561.4 433.695 561.354 433.836 561.354 433.982V436.663L571.239 433.19Z" fill="#262626"/>
<path d="M298.942 552.003V541.983C298.942 541.546 299.08 541.119 299.336 540.764C299.592 540.408 299.955 540.14 300.372 539.998L308.844 537.114C309.163 537.005 309.504 536.974 309.838 537.022C310.171 537.07 310.489 537.196 310.763 537.39C311.038 537.584 311.261 537.84 311.416 538.137C311.57 538.434 311.651 538.764 311.651 539.098V551.822C311.651 552.524 311.414 553.205 310.978 553.758C310.542 554.311 309.933 554.704 309.246 554.874C308.558 555.045 307.834 554.983 307.186 554.699C306.539 554.414 306.006 553.924 305.672 553.305C305.338 552.687 305.222 551.975 305.343 551.284C305.464 550.593 305.815 549.962 306.34 549.491C306.865 549.02 307.534 548.736 308.24 548.684C308.946 548.632 309.65 548.816 310.239 549.206V542.674L300.354 546.147V554.619C300.354 555.321 300.118 556.002 299.682 556.555C299.246 557.108 298.636 557.501 297.949 557.671C297.262 557.842 296.537 557.78 295.89 557.496C295.242 557.211 294.709 556.721 294.375 556.102C294.041 555.484 293.926 554.772 294.047 554.081C294.168 553.39 294.519 552.759 295.044 552.288C295.568 551.817 296.237 551.533 296.943 551.481C297.65 551.429 298.353 551.613 298.942 552.003ZM297.177 556.367C297.645 556.367 298.094 556.183 298.425 555.855C298.756 555.528 298.942 555.083 298.942 554.619C298.942 554.156 298.756 553.711 298.425 553.383C298.094 553.055 297.645 552.871 297.177 552.871C296.709 552.871 296.26 553.055 295.929 553.383C295.598 553.711 295.412 554.156 295.412 554.619C295.412 555.083 295.598 555.528 295.929 555.855C296.26 556.183 296.709 556.367 297.177 556.367ZM308.474 553.57C308.942 553.57 309.391 553.386 309.722 553.058C310.053 552.731 310.239 552.286 310.239 551.822C310.239 551.359 310.053 550.914 309.722 550.586C309.391 550.258 308.942 550.074 308.474 550.074C308.006 550.074 307.557 550.258 307.226 550.586C306.895 550.914 306.709 551.359 306.709 551.822C306.709 552.286 306.895 552.731 307.226 553.058C307.557 553.386 308.006 553.57 308.474 553.57ZM310.239 541.19V539.098C310.239 538.986 310.212 538.877 310.16 538.778C310.109 538.679 310.034 538.593 309.943 538.529C309.851 538.464 309.745 538.422 309.634 538.406C309.523 538.39 309.41 538.401 309.303 538.437L300.831 541.321C300.692 541.369 300.571 541.458 300.486 541.576C300.4 541.695 300.354 541.836 300.354 541.982V544.663L310.239 541.19Z" fill="#262626"/>
<path d="M125.942 494.003V483.983C125.942 483.546 126.08 483.119 126.336 482.764C126.592 482.408 126.955 482.14 127.372 481.998L135.844 479.114C136.163 479.005 136.504 478.974 136.838 479.022C137.171 479.07 137.489 479.196 137.763 479.39C138.038 479.584 138.261 479.84 138.416 480.137C138.57 480.434 138.651 480.764 138.651 481.098V493.822C138.651 494.524 138.414 495.205 137.978 495.758C137.542 496.311 136.933 496.704 136.246 496.874C135.558 497.045 134.834 496.983 134.186 496.699C133.539 496.414 133.006 495.924 132.672 495.305C132.338 494.687 132.222 493.975 132.343 493.284C132.464 492.593 132.815 491.962 133.34 491.491C133.865 491.02 134.534 490.736 135.24 490.684C135.946 490.632 136.65 490.816 137.239 491.206V484.674L127.354 488.147V496.619C127.354 497.321 127.118 498.002 126.682 498.555C126.246 499.108 125.636 499.501 124.949 499.671C124.262 499.842 123.537 499.78 122.89 499.496C122.242 499.211 121.709 498.721 121.375 498.102C121.041 497.484 120.926 496.772 121.047 496.081C121.168 495.39 121.519 494.759 122.044 494.288C122.568 493.817 123.237 493.533 123.943 493.481C124.65 493.429 125.353 493.613 125.942 494.003ZM124.177 498.367C124.645 498.367 125.094 498.183 125.425 497.855C125.756 497.528 125.942 497.083 125.942 496.619C125.942 496.156 125.756 495.711 125.425 495.383C125.094 495.055 124.645 494.871 124.177 494.871C123.709 494.871 123.26 495.055 122.929 495.383C122.598 495.711 122.412 496.156 122.412 496.619C122.412 497.083 122.598 497.528 122.929 497.855C123.26 498.183 123.709 498.367 124.177 498.367ZM135.474 495.57C135.942 495.57 136.391 495.386 136.722 495.058C137.053 494.731 137.239 494.286 137.239 493.822C137.239 493.359 137.053 492.914 136.722 492.586C136.391 492.258 135.942 492.074 135.474 492.074C135.006 492.074 134.557 492.258 134.226 492.586C133.895 492.914 133.709 493.359 133.709 493.822C133.709 494.286 133.895 494.731 134.226 495.058C134.557 495.386 135.006 495.57 135.474 495.57ZM137.239 483.19V481.098C137.239 480.986 137.212 480.877 137.16 480.778C137.109 480.679 137.034 480.593 136.943 480.529C136.851 480.464 136.745 480.422 136.634 480.406C136.523 480.39 136.41 480.401 136.303 480.437L127.831 483.321C127.692 483.369 127.571 483.458 127.486 483.576C127.4 483.695 127.354 483.836 127.354 483.982V486.663L137.239 483.19Z" fill="#262626"/>
<path d="M154.942 380.003V369.983C154.942 369.546 155.08 369.119 155.336 368.764C155.592 368.408 155.955 368.14 156.372 367.998L164.844 365.114C165.163 365.005 165.504 364.974 165.838 365.022C166.171 365.07 166.489 365.196 166.763 365.39C167.038 365.584 167.261 365.84 167.416 366.137C167.57 366.434 167.651 366.764 167.651 367.098V379.822C167.651 380.524 167.414 381.205 166.978 381.758C166.542 382.311 165.933 382.704 165.246 382.874C164.558 383.045 163.834 382.983 163.186 382.699C162.539 382.414 162.006 381.924 161.672 381.305C161.338 380.687 161.222 379.975 161.343 379.284C161.464 378.593 161.815 377.962 162.34 377.491C162.865 377.02 163.534 376.736 164.24 376.684C164.946 376.632 165.65 376.816 166.239 377.206V370.674L156.354 374.147V382.619C156.354 383.321 156.118 384.002 155.682 384.555C155.246 385.108 154.636 385.501 153.949 385.671C153.262 385.842 152.537 385.78 151.89 385.496C151.242 385.211 150.709 384.721 150.375 384.102C150.041 383.484 149.926 382.772 150.047 382.081C150.168 381.39 150.519 380.759 151.044 380.288C151.568 379.817 152.237 379.533 152.943 379.481C153.65 379.429 154.353 379.613 154.942 380.003ZM153.177 384.367C153.645 384.367 154.094 384.183 154.425 383.855C154.756 383.528 154.942 383.083 154.942 382.619C154.942 382.156 154.756 381.711 154.425 381.383C154.094 381.055 153.645 380.871 153.177 380.871C152.709 380.871 152.26 381.055 151.929 381.383C151.598 381.711 151.412 382.156 151.412 382.619C151.412 383.083 151.598 383.528 151.929 383.855C152.26 384.183 152.709 384.367 153.177 384.367ZM164.474 381.57C164.942 381.57 165.391 381.386 165.722 381.058C166.053 380.731 166.239 380.286 166.239 379.822C166.239 379.359 166.053 378.914 165.722 378.586C165.391 378.258 164.942 378.074 164.474 378.074C164.006 378.074 163.557 378.258 163.226 378.586C162.895 378.914 162.709 379.359 162.709 379.822C162.709 380.286 162.895 380.731 163.226 381.058C163.557 381.386 164.006 381.57 164.474 381.57ZM166.239 369.19V367.098C166.239 366.986 166.212 366.877 166.16 366.778C166.109 366.679 166.034 366.593 165.943 366.529C165.851 366.464 165.745 366.422 165.634 366.406C165.523 366.39 165.41 366.401 165.303 366.437L156.831 369.321C156.692 369.369 156.571 369.458 156.486 369.576C156.4 369.695 156.354 369.836 156.354 369.982V372.663L166.239 369.19Z" fill="#262626"/>
<path d="M18.9422 219.003V208.983C18.9421 208.546 19.0798 208.119 19.3362 207.764C19.5925 207.408 19.9546 207.14 20.372 206.998L28.8444 204.114C29.1633 204.005 29.5038 203.974 29.8376 204.022C30.1713 204.07 30.4887 204.196 30.7632 204.39C31.0377 204.584 31.2615 204.84 31.4159 205.137C31.5703 205.434 31.6508 205.764 31.6508 206.098V218.822C31.6508 219.524 31.4141 220.205 30.9783 220.758C30.5425 221.311 29.9326 221.704 29.2455 221.874C28.5584 222.045 27.8336 221.983 27.1861 221.699C26.5385 221.414 26.0055 220.924 25.6716 220.305C25.3378 219.687 25.2222 218.975 25.3433 218.284C25.4644 217.593 25.8152 216.962 26.3401 216.491C26.8649 216.02 27.5336 215.736 28.2399 215.684C28.9463 215.632 29.6498 215.816 30.2388 216.206V209.674L20.3543 213.147V221.619C20.3542 222.321 20.1175 223.002 19.6817 223.555C19.2459 224.108 18.636 224.501 17.949 224.671C17.2619 224.842 16.537 224.78 15.8895 224.496C15.242 224.211 14.709 223.721 14.3751 223.102C14.0412 222.484 13.9257 221.772 14.0468 221.081C14.1679 220.39 14.5187 219.759 15.0435 219.288C15.5683 218.817 16.237 218.533 16.9434 218.481C17.6498 218.429 18.3533 218.613 18.9422 219.003ZM17.1772 223.367C17.6453 223.367 18.0942 223.183 18.4253 222.855C18.7563 222.528 18.9422 222.083 18.9422 221.619C18.9422 221.156 18.7563 220.711 18.4253 220.383C18.0942 220.055 17.6453 219.871 17.1772 219.871C16.709 219.871 16.2601 220.055 15.9291 220.383C15.598 220.711 15.4121 221.156 15.4121 221.619C15.4121 222.083 15.598 222.528 15.9291 222.855C16.2601 223.183 16.709 223.367 17.1772 223.367ZM28.4737 220.57C28.9418 220.57 29.3908 220.386 29.7218 220.058C30.0528 219.731 30.2388 219.286 30.2388 218.822C30.2388 218.359 30.0528 217.914 29.7218 217.586C29.3908 217.258 28.9418 217.074 28.4737 217.074C28.0056 217.074 27.5566 217.258 27.2256 217.586C26.8946 217.914 26.7086 218.359 26.7086 218.822C26.7086 219.286 26.8946 219.731 27.2256 220.058C27.5566 220.386 28.0056 220.57 28.4737 220.57ZM30.2388 208.19V206.098C30.2387 205.986 30.2118 205.877 30.1603 205.778C30.1088 205.679 30.0342 205.593 29.9427 205.529C29.8512 205.464 29.7454 205.422 29.6342 205.406C29.523 205.39 29.4096 205.401 29.3033 205.437L20.8309 208.321C20.6919 208.369 20.5712 208.458 20.4858 208.576C20.4004 208.695 20.3544 208.836 20.3543 208.982V211.663L30.2388 208.19Z" fill="#262626"/>
<path d="M156.942 101.003V90.9827C156.942 90.5456 157.08 90.1194 157.336 89.7637C157.592 89.4079 157.955 89.1403 158.372 88.9982L166.844 86.1139C167.163 86.0053 167.504 85.9738 167.838 86.0218C168.171 86.0699 168.489 86.1962 168.763 86.3903C169.038 86.5843 169.261 86.8405 169.416 87.1374C169.57 87.4344 169.651 87.7636 169.651 88.0976V100.822C169.651 101.524 169.414 102.205 168.978 102.758C168.542 103.311 167.933 103.704 167.246 103.874C166.558 104.045 165.834 103.983 165.186 103.699C164.539 103.414 164.006 102.924 163.672 102.305C163.338 101.687 163.222 100.975 163.343 100.284C163.464 99.593 163.815 98.9618 164.34 98.4907C164.865 98.0196 165.534 97.7357 166.24 97.6841C166.946 97.6325 167.65 97.8161 168.239 98.2058V91.6735L158.354 95.1474V103.619C158.354 104.321 158.118 105.002 157.682 105.555C157.246 106.108 156.636 106.501 155.949 106.671C155.262 106.842 154.537 106.78 153.89 106.496C153.242 106.211 152.709 105.721 152.375 105.102C152.041 104.484 151.926 103.772 152.047 103.081C152.168 102.39 152.519 101.759 153.044 101.288C153.568 100.817 154.237 100.533 154.943 100.481C155.65 100.429 156.353 100.613 156.942 101.003ZM155.177 105.367C155.645 105.367 156.094 105.183 156.425 104.855C156.756 104.528 156.942 104.083 156.942 103.619C156.942 103.156 156.756 102.711 156.425 102.383C156.094 102.055 155.645 101.871 155.177 101.871C154.709 101.871 154.26 102.055 153.929 102.383C153.598 102.711 153.412 103.156 153.412 103.619C153.412 104.083 153.598 104.528 153.929 104.855C154.26 105.183 154.709 105.367 155.177 105.367ZM166.474 102.57C166.942 102.57 167.391 102.386 167.722 102.058C168.053 101.731 168.239 101.286 168.239 100.822C168.239 100.359 168.053 99.9141 167.722 99.5863C167.391 99.2585 166.942 99.0743 166.474 99.0743C166.006 99.0743 165.557 99.2585 165.226 99.5863C164.895 99.9141 164.709 100.359 164.709 100.822C164.709 101.286 164.895 101.731 165.226 102.058C165.557 102.386 166.006 102.57 166.474 102.57ZM168.239 90.1897V88.0976C168.239 87.9863 168.212 87.8766 168.16 87.7777C168.109 87.6788 168.034 87.5935 167.943 87.5288C167.851 87.4642 167.745 87.4221 167.634 87.4061C167.523 87.3901 167.41 87.4007 167.303 87.4368L158.831 90.3212C158.692 90.3685 158.571 90.4576 158.486 90.5761C158.4 90.6945 158.354 90.8364 158.354 90.982V93.6629L168.239 90.1897Z" fill="#262626"/>
<path d="M298.942 203.003V192.983C298.942 192.546 299.08 192.119 299.336 191.764C299.592 191.408 299.955 191.14 300.372 190.998L308.844 188.114C309.163 188.005 309.504 187.974 309.838 188.022C310.171 188.07 310.489 188.196 310.763 188.39C311.038 188.584 311.261 188.84 311.416 189.137C311.57 189.434 311.651 189.764 311.651 190.098V202.822C311.651 203.524 311.414 204.205 310.978 204.758C310.542 205.311 309.933 205.704 309.246 205.874C308.558 206.045 307.834 205.983 307.186 205.699C306.539 205.414 306.006 204.924 305.672 204.305C305.338 203.687 305.222 202.975 305.343 202.284C305.464 201.593 305.815 200.962 306.34 200.491C306.865 200.02 307.534 199.736 308.24 199.684C308.946 199.632 309.65 199.816 310.239 200.206V193.674L300.354 197.147V205.619C300.354 206.321 300.118 207.002 299.682 207.555C299.246 208.108 298.636 208.501 297.949 208.671C297.262 208.842 296.537 208.78 295.89 208.496C295.242 208.211 294.709 207.721 294.375 207.102C294.041 206.484 293.926 205.772 294.047 205.081C294.168 204.39 294.519 203.759 295.044 203.288C295.568 202.817 296.237 202.533 296.943 202.481C297.65 202.429 298.353 202.613 298.942 203.003ZM297.177 207.367C297.645 207.367 298.094 207.183 298.425 206.855C298.756 206.528 298.942 206.083 298.942 205.619C298.942 205.156 298.756 204.711 298.425 204.383C298.094 204.055 297.645 203.871 297.177 203.871C296.709 203.871 296.26 204.055 295.929 204.383C295.598 204.711 295.412 205.156 295.412 205.619C295.412 206.083 295.598 206.528 295.929 206.855C296.26 207.183 296.709 207.367 297.177 207.367ZM308.474 204.57C308.942 204.57 309.391 204.386 309.722 204.058C310.053 203.731 310.239 203.286 310.239 202.822C310.239 202.359 310.053 201.914 309.722 201.586C309.391 201.258 308.942 201.074 308.474 201.074C308.006 201.074 307.557 201.258 307.226 201.586C306.895 201.914 306.709 202.359 306.709 202.822C306.709 203.286 306.895 203.731 307.226 204.058C307.557 204.386 308.006 204.57 308.474 204.57ZM310.239 192.19V190.098C310.239 189.986 310.212 189.877 310.16 189.778C310.109 189.679 310.034 189.593 309.943 189.529C309.851 189.464 309.745 189.422 309.634 189.406C309.523 189.39 309.41 189.401 309.303 189.437L300.831 192.321C300.692 192.369 300.571 192.458 300.486 192.576C300.4 192.695 300.354 192.836 300.354 192.982V195.663L310.239 192.19Z" fill="#262626"/>
<path d="M294.942 25.0028V14.9827C294.942 14.5456 295.08 14.1194 295.336 13.7637C295.592 13.4079 295.955 13.1403 296.372 12.9982L304.844 10.1139C305.163 10.0053 305.504 9.97377 305.838 10.0218C306.171 10.0699 306.489 10.1962 306.763 10.3903C307.038 10.5843 307.261 10.8405 307.416 11.1374C307.57 11.4344 307.651 11.7636 307.651 12.0976V24.8224C307.651 25.5239 307.414 26.2052 306.978 26.7582C306.542 27.3112 305.933 27.7041 305.246 27.8745C304.558 28.0449 303.834 27.983 303.186 27.6987C302.539 27.4144 302.006 26.924 301.672 26.3054C301.338 25.6867 301.222 24.9753 301.343 24.2841C301.464 23.593 301.815 22.9618 302.34 22.4907C302.865 22.0196 303.534 21.7357 304.24 21.6841C304.946 21.6325 305.65 21.8161 306.239 22.2058V15.6735L296.354 19.1474V27.6193C296.354 28.3208 296.118 29.0022 295.682 29.5551C295.246 30.1081 294.636 30.501 293.949 30.6714C293.262 30.8418 292.537 30.78 291.89 30.4957C291.242 30.2114 290.709 29.721 290.375 29.1023C290.041 28.4837 289.926 27.7723 290.047 27.0811C290.168 26.39 290.519 25.7587 291.044 25.2876C291.568 24.8166 292.237 24.5327 292.943 24.4811C293.65 24.4294 294.353 24.6131 294.942 25.0028ZM293.177 29.3674C293.645 29.3674 294.094 29.1833 294.425 28.8554C294.756 28.5276 294.942 28.083 294.942 27.6193C294.942 27.1557 294.756 26.7111 294.425 26.3833C294.094 26.0554 293.645 25.8712 293.177 25.8712C292.709 25.8712 292.26 26.0554 291.929 26.3833C291.598 26.7111 291.412 27.1557 291.412 27.6193C291.412 28.083 291.598 28.5276 291.929 28.8554C292.26 29.1833 292.709 29.3674 293.177 29.3674ZM304.474 26.5705C304.942 26.5705 305.391 26.3863 305.722 26.0585C306.053 25.7306 306.239 25.286 306.239 24.8224C306.239 24.3588 306.053 23.9141 305.722 23.5863C305.391 23.2585 304.942 23.0743 304.474 23.0743C304.006 23.0743 303.557 23.2585 303.226 23.5863C302.895 23.9141 302.709 24.3588 302.709 24.8224C302.709 25.286 302.895 25.7306 303.226 26.0585C303.557 26.3863 304.006 26.5705 304.474 26.5705ZM306.239 14.1897V12.0976C306.239 11.9863 306.212 11.8766 306.16 11.7777C306.109 11.6788 306.034 11.5935 305.943 11.5288C305.851 11.4642 305.745 11.4221 305.634 11.4061C305.523 11.3901 305.41 11.4007 305.303 11.4368L296.831 14.3212C296.692 14.3685 296.571 14.4576 296.486 14.5761C296.4 14.6945 296.354 14.8364 296.354 14.982V17.6629L306.239 14.1897Z" fill="#262626"/>
</g>
<defs>
<clipPath id="clip0_309_2572">
<rect width="590" height="568" fill="white"/>
</clipPath>
<clipPath id="clip1_309_2572">
<rect width="20.7657" height="20.7657" fill="white" transform="translate(402 55)"/>
</clipPath>
<clipPath id="clip2_309_2572">
<rect width="20.7657" height="20.7657" fill="white" transform="translate(464 123)"/>
</clipPath>
</defs>
</svg>
