<svg width="118" height="35" viewBox="0 0 118 35" fill="none" xmlns="http://www.w3.org/2000/svg">
<path d="M0 3H8.65946L17.8054 24.5H18.1946L27.3405 3H36V35H29.1892V14.1719H28.9135L20.3189 34.8438H15.6811L7.08649 14.0938H6.81081V35H0V3Z" fill="#B0D54E"/>
<path d="M52.1046 35C49.6175 35 47.4666 34.4738 45.652 33.4214C43.8481 32.3584 42.4551 30.8808 41.473 28.9886C40.491 27.0858 40 24.88 40 22.3713C40 19.8413 40.491 17.6302 41.473 15.738C42.4551 13.8352 43.8481 12.3576 45.652 11.3052C47.4666 10.2422 49.6175 9.71071 52.1046 9.71071C54.5917 9.71071 56.7372 10.2422 58.5411 11.3052C60.3557 12.3576 61.7541 13.8352 62.7361 15.738C63.7181 17.6302 64.2091 19.8413 64.2091 22.3713C64.2091 24.88 63.7181 27.0858 62.7361 28.9886C61.7541 30.8808 60.3557 32.3584 58.5411 33.4214C56.7372 34.4738 54.5917 35 52.1046 35ZM52.1366 29.738C53.2681 29.738 54.2127 29.4191 54.9706 28.7813C55.7285 28.1329 56.2995 27.2506 56.6838 26.1344C57.0788 25.0182 57.2762 23.7479 57.2762 22.3235C57.2762 20.899 57.0788 19.6287 56.6838 18.5125C56.2995 17.3964 55.7285 16.514 54.9706 15.8656C54.2127 15.2172 53.2681 14.8929 52.1366 14.8929C50.9944 14.8929 50.0338 15.2172 49.2545 15.8656C48.486 16.514 47.9043 17.3964 47.5093 18.5125C47.125 19.6287 46.9329 20.899 46.9329 22.3235C46.9329 23.7479 47.125 25.0182 47.5093 26.1344C47.9043 27.2506 48.486 28.1329 49.2545 28.7813C50.0338 29.4191 50.9944 29.738 52.1366 29.738Z" fill="#262626"/>
<path d="M80.5983 10.0296V15.1321H65.7878V10.0296H80.5983ZM69.1502 4.16173H75.9711V26.9954C75.9711 27.6226 76.0671 28.1116 76.2593 28.4624C76.4514 28.8026 76.7182 29.0418 77.0598 29.18C77.4121 29.3181 77.8177 29.3872 78.2767 29.3872C78.5969 29.3872 78.9171 29.3607 79.2374 29.3075C79.5576 29.2437 79.8031 29.1959 79.9739 29.164L81.0466 34.2187C80.7051 34.325 80.2247 34.4472 79.6056 34.5854C78.9865 34.7342 78.234 34.8246 77.348 34.8565C75.7042 34.9203 74.2632 34.7024 73.025 34.2027C71.7974 33.7031 70.8421 32.9271 70.1589 31.8747C69.4758 30.8223 69.1396 29.4935 69.1502 27.8884V4.16173Z" fill="#262626"/>
<path d="M83.9143 34.5216V10.0296H90.7351V34.5216H83.9143ZM87.3407 6.87244C86.3266 6.87244 85.4567 6.53759 84.7309 5.86788C84.0157 5.18755 83.6581 4.37434 83.6581 3.42825C83.6581 2.49279 84.0157 1.69021 84.7309 1.0205C85.4567 0.340167 86.3266 0 87.3407 0C88.3547 0 89.2194 0.340167 89.9345 1.0205C90.6604 1.69021 91.0233 2.49279 91.0233 3.42825C91.0233 4.37434 90.6604 5.18755 89.9345 5.86788C89.2194 6.53759 88.3547 6.87244 87.3407 6.87244Z" fill="#262626"/>
<path d="M118 10.0296L109.402 34.5216H101.716L93.1184 10.0296H100.323L105.431 27.5535H105.687L110.779 10.0296H118Z" fill="#262626"/>
</svg>
