<svg width="0" height="0" class="hidden">
  <symbol fill="none" xmlns="http://www.w3.org/2000/svg" viewBox="0 0 24 24" id="ic-plus">
    <path d="M12.6667 11.3333H14.6667C14.8435 11.3333 15.013 11.4036 15.1381 11.5286C15.2631 11.6536 15.3333 11.8232 15.3333 12C15.3333 12.1768 15.2631 12.3464 15.1381 12.4714C15.013 12.5964 14.8435 12.6667 14.6667 12.6667H12.6667V14.6667C12.6667 14.8435 12.5964 15.013 12.4714 15.1381C12.3464 15.2631 12.1768 15.3333 12 15.3333C11.8232 15.3333 11.6536 15.2631 11.5286 15.1381C11.4036 15.013 11.3333 14.8435 11.3333 14.6667V12.6667H9.33333C9.15652 12.6667 8.98695 12.5964 8.86193 12.4714C8.7369 12.3464 8.66667 12.1768 8.66667 12C8.66667 11.8232 8.7369 11.6536 8.86193 11.5286C8.98695 11.4036 9.15652 11.3333 9.33333 11.3333H11.3333V9.33333C11.3333 9.15652 11.4036 8.98695 11.5286 8.86193C11.6536 8.7369 11.8232 8.66667 12 8.66667C12.1768 8.66667 12.3464 8.7369 12.4714 8.86193C12.5964 8.98695 12.6667 9.15652 12.6667 9.33333V11.3333ZM12 22C6.47733 22 2 17.5227 2 12C2 6.47733 6.47733 2 12 2C17.5227 2 22 6.47733 22 12C22 17.5227 17.5227 22 12 22ZM12 20.6667C16.7867 20.6667 20.6667 16.7867 20.6667 12C20.6667 7.21333 16.7867 3.33333 12 3.33333C7.21333 3.33333 3.33333 7.21333 3.33333 12C3.33333 16.7867 7.21333 20.6667 12 20.6667Z" fill="currentColor"></path>
  </symbol>
  <symbol fill="none" xmlns="http://www.w3.org/2000/svg" viewBox="0 0 24 24" id="ic-minus">
    <path d="M14.6667 11.3333C14.8435 11.3333 15.013 11.4036 15.1381 11.5286C15.2631 11.6536 15.3333 11.8232 15.3333 12C15.3333 12.1768 15.2631 12.3464 15.1381 12.4714C15.013 12.5964 14.8435 12.6667 14.6667 12.6667H9.33333C9.15652 12.6667 8.98695 12.5964 8.86193 12.4714C8.7369 12.3464 8.66667 12.1768 8.66667 12C8.66667 11.8232 8.7369 11.6536 8.86193 11.5286C8.98695 11.4036 9.15652 11.3333 9.33333 11.3333H14.6667ZM12 22C6.47733 22 2 17.5227 2 12C2 6.47733 6.47733 2 12 2C17.5227 2 22 6.47733 22 12C22 17.5227 17.5227 22 12 22ZM12 20.6667C16.7867 20.6667 20.6667 16.7867 20.6667 12C20.6667 7.21333 16.7867 3.33333 12 3.33333C7.21333 3.33333 3.33333 7.21333 3.33333 12C3.33333 16.7867 7.21333 20.6667 12 20.6667Z" fill="currentColor"></path>
  </symbol>
  <symbol fill="none" xmlns="http://www.w3.org/2000/svg" viewBox="0 0 24 24" id="ic-arrow_btn">
    <path d="M14.6254 7.48885L8.21616 7.27349L8.12502 4.56111L19.0709 4.92892L19.4387 15.8748L16.7263 15.7837L16.511 9.37447L5.87159 20.0139L3.98597 18.1282L14.6254 7.48885Z" fill="currentColor"></path>
  </symbol>
  <symbol fill="none" xmlns="http://www.w3.org/2000/svg" viewBox="0 0 24 24" id="ic-arrow_up">
    <path d="M4.6891 19.5631H19.3108V22H4.6891V19.5631ZM11.9999 2L3.82764 10.1723L5.55056 11.8952L10.7815 6.66431V17.1261H13.2184V6.66431L18.4493 11.8952L20.1722 10.1723L11.9999 2Z" fill="currentColor"></path>
  </symbol>
  <symbol fill="none" xmlns="http://www.w3.org/2000/svg" viewBox="0 0 24 24" id="ic-email">
    <path d="M22.0001 6.65633C22.0001 6.66237 22.0001 6.6684 22.0001 6.67442V17.3333C22.0001 18.8061 20.8061 20 19.3334 20H4.66672C3.19396 20 2 18.8061 2 17.3333V6.67442C2 6.6684 2 6.66237 2 6.65633C2.00564 5.18833 3.19741 4 4.66672 4H19.3334C20.8027 4 21.9945 5.18833 22.0001 6.65633ZM20.629 6.35052C20.4871 5.76674 19.9608 5.33333 19.3334 5.33333H4.66672C4.03927 5.33333 3.51304 5.76674 3.37109 6.35052L11.6126 12.2373C11.8444 12.4029 12.1557 12.4029 12.3875 12.2373L20.629 6.35052ZM20.6667 7.96213L13.1625 13.3223C12.4671 13.819 11.533 13.819 10.8376 13.3223L3.33339 7.96213V17.3333C3.33339 18.0697 3.93034 18.6667 4.66672 18.6667H19.3334C20.0698 18.6667 20.6667 18.0697 20.6667 17.3333V7.96213Z" fill="currentColor"></path>
  </symbol>
  <symbol fill="none" xmlns="http://www.w3.org/2000/svg" viewBox="0 0 24 24" id="ic-loc">
    <path d="M12.9189 21.6388C12.4009 22.1204 11.5991 22.1204 11.0812 21.6388C6.31482 17.2073 3.90332 13.3808 3.90332 10.0967C3.90332 5.22284 7.34102 2 12 2C16.659 2 20.0967 5.22284 20.0967 10.0967C20.0967 13.3808 17.6852 17.2073 12.9189 21.6388ZM5.25277 10.0967C5.25277 12.912 7.48296 16.4508 12 20.6506C16.5171 16.4508 18.7473 12.912 18.7473 10.0967C18.7473 5.98828 15.9325 3.34945 12 3.34945C8.06753 3.34945 5.25277 5.98828 5.25277 10.0967ZM12 14.1451C9.76418 14.1451 7.95167 12.3325 7.95167 10.0967C7.95167 7.86086 9.76418 6.04835 12 6.04835C14.2359 6.04835 16.0484 7.86086 16.0484 10.0967C16.0484 12.3325 14.2359 14.1451 12 14.1451ZM12 12.7956C13.4906 12.7956 14.6989 11.5873 14.6989 10.0967C14.6989 8.60614 13.4906 7.3978 12 7.3978C10.5095 7.3978 9.30112 8.60614 9.30112 10.0967C9.30112 11.5873 10.5095 12.7956 12 12.7956Z" fill="currentColor"></path>
  </symbol>
  <symbol fill="none" xmlns="http://www.w3.org/2000/svg" viewBox="0 0 24 24" id="ic-phone">
    <path d="M19.8691 18.5383C20.6209 19.026 21.2731 19.8436 21.8356 20.9686C22.0116 21.3206 21.869 21.7486 21.517 21.9246C21.165 22.1006 20.737 21.9579 20.561 21.606C19.9517 20.3873 19.2881 19.7053 18.5962 19.5022L18.296 19.7062C17.29 20.3899 16.0047 20.5132 14.8871 20.033C12.5366 19.0232 10.0988 17.3251 7.56763 14.9429C4.96866 12.4969 3.20929 10.0167 2.30026 7.49663C1.91301 6.4231 2.06349 5.22902 2.70498 4.28514L3.51718 3.09006C3.72008 2.79153 3.98549 2.5407 4.295 2.35499C5.47347 1.64791 7.002 2.03005 7.70908 3.20851L7.84135 3.42896C8.92752 5.23925 8.64226 7.55646 7.14946 9.04926L5.59332 10.6054C6.39135 11.7042 7.37462 12.8043 8.54431 13.9051C9.72459 15.0159 10.8777 15.9669 12.0028 16.7585L13.4307 15.3305C14.9235 13.8377 17.2407 13.5525 19.051 14.6386L19.2715 14.7709C19.581 14.9566 19.8464 15.2074 20.0493 15.506C20.6984 16.4611 20.5936 17.7065 19.8691 18.5383ZM14.4384 16.3382L13.2183 17.5583C13.9754 18.0215 14.7192 18.4099 15.4496 18.7237C16.1202 19.0117 16.8914 18.9378 17.495 18.5276L18.5889 17.7841C19.0746 17.4541 19.2007 16.7927 18.8706 16.307C18.7839 16.1794 18.6705 16.0723 18.5383 15.9929L18.3178 15.8606C17.0683 15.1109 15.4688 15.3078 14.4384 16.3382ZM3.6408 7.01307C3.92682 7.806 4.30928 8.59996 4.78861 9.39473L6.14177 8.04157C7.17217 7.01116 7.36908 5.41171 6.61935 4.16216L6.48708 3.94171C6.18493 3.43814 5.53177 3.27485 5.0282 3.577C4.89595 3.65635 4.78253 3.76353 4.69583 3.8911L3.88363 5.08618C3.49874 5.65251 3.40845 6.36895 3.6408 7.01307ZM21.2369 8.9938C21.3748 9.36241 21.1877 9.77295 20.8191 9.91077C20.4505 10.0486 20.0399 9.86152 19.9021 9.49292C18.9704 7.00125 16.9949 5.01654 14.5079 4.07294C14.14 3.93335 13.9549 3.52191 14.0945 3.15397C14.2341 2.78604 14.6455 2.60093 15.0135 2.74053C17.8839 3.82961 20.1616 6.11794 21.2369 8.9938ZM18.2021 10.2614C18.3394 10.6302 18.1518 11.0405 17.783 11.1778C17.4142 11.3151 17.0039 11.1275 16.8666 10.7587C16.2204 9.02341 14.8431 7.64211 13.1097 6.99089C12.7414 6.85249 12.5549 6.44166 12.6933 6.07327C12.8317 5.70488 13.2426 5.51845 13.6109 5.65685C15.7303 6.45311 17.412 8.13959 18.2021 10.2614Z" fill="currentColor"></path>
  </symbol>
  <symbol fill="none" xmlns="http://www.w3.org/2000/svg" viewBox="0 0 24 24" id="ic-telegram">
    <path d="M21.943 5.14053L18.9249 19.3739C18.6972 20.3785 18.1034 20.6285 17.2596 20.1553L12.6609 16.7666L10.442 18.9007C10.1964 19.1462 9.99105 19.3516 9.5178 19.3516L9.84819 14.6682L18.3713 6.96659C18.7418 6.6362 18.2909 6.45315 17.7953 6.78354L7.25867 13.4181L2.72255 11.9983C1.73585 11.6902 1.718 11.0116 2.92793 10.5383L20.6706 3.70291C21.4921 3.39484 22.2109 3.88596 21.943 5.14053Z" fill="currentColor"></path>
  </symbol>
  <symbol fill="none" xmlns="http://www.w3.org/2000/svg" viewBox="0 0 24 24" id="ic-whatsapp">
    <path d="M19.0045 4.90625C17.1339 3.03125 14.6429 2 11.9955 2C6.53125 2 2.08482 6.44643 2.08482 11.9107C2.08482 13.6563 2.54018 15.3616 3.40625 16.8661L2 22L7.25446 20.6205C8.70089 21.4107 10.3304 21.8259 11.9911 21.8259H11.9955C17.4554 21.8259 22 17.3795 22 11.9152C22 9.26786 20.875 6.78125 19.0045 4.90625ZM11.9955 20.1563C10.5134 20.1563 9.0625 19.7589 7.79911 19.0089L7.5 18.8304L4.38393 19.6473L5.21429 16.6071L5.01786 16.2946C4.19196 14.9821 3.75893 13.4688 3.75893 11.9107C3.75893 7.37054 7.45536 3.67411 12 3.67411C14.2009 3.67411 16.2679 4.53125 17.8214 6.08929C19.375 7.64732 20.3304 9.71429 20.3259 11.9152C20.3259 16.4598 16.5357 20.1563 11.9955 20.1563ZM16.5134 13.9866C16.2679 13.8616 15.0491 13.2634 14.8214 13.183C14.5938 13.0982 14.4286 13.058 14.2634 13.308C14.0982 13.558 13.625 14.1116 13.4777 14.2813C13.3348 14.4464 13.1875 14.4688 12.942 14.3438C11.4866 13.6161 10.5313 13.0446 9.57143 11.3973C9.31696 10.9598 9.82589 10.9911 10.2991 10.0446C10.3795 9.87946 10.3393 9.73661 10.2768 9.61161C10.2143 9.48661 9.71875 8.26786 9.51339 7.77232C9.3125 7.29018 9.10714 7.35714 8.95536 7.34821C8.8125 7.33929 8.64732 7.33929 8.48214 7.33929C8.31696 7.33929 8.04911 7.40179 7.82143 7.64732C7.59375 7.89732 6.95536 8.49554 6.95536 9.71429C6.95536 10.933 7.84375 12.1116 7.96429 12.2768C8.08929 12.442 9.70982 14.942 12.1964 16.0179C13.7679 16.6964 14.3839 16.7545 15.1696 16.6384C15.6473 16.567 16.6339 16.0402 16.8393 15.4598C17.0446 14.8795 17.0446 14.3839 16.9821 14.2813C16.9241 14.1696 16.7589 14.1071 16.5134 13.9866Z" fill="currentColor"></path>
  </symbol>
	 <symbol fill="none" xmlns="http://www.w3.org/2000/svg" viewBox="0 0 24 24" id="ic-user">
    <path d="M17 15.125C15.4141 15.125 15.1406 15.0664 14.1797 15.3906C13.4961 15.6211 12.7617 15.75 12 15.75C11.2383 15.75 10.5039 15.6211 9.82031 15.3906C8.85937 15.0664 8.58984 15.125 7 15.125C4.23828 15.125 2 17.3633 2 20.125V20.75C2 21.4414 2.55859 22 3.25 22H20.75C21.4414 22 22 21.4414 22 20.75V20.125C22 17.3633 19.7617 15.125 17 15.125ZM20.125 20.125H3.875C3.875 19.2891 4.19922 18.5039 4.78906 17.9141C5.37891 17.3242 6.16406 17 7 17C8.60547 17 8.60156 16.957 9.21875 17.1641C10.1172 17.4688 11.0547 17.625 12 17.625C12.9453 17.625 13.8828 17.4688 14.7813 17.1641C15.3984 16.9531 15.3945 17 17 17C18.7227 17 20.125 18.4023 20.125 20.125ZM12 14.5C15.4531 14.5 18.25 11.7031 18.25 8.25C18.25 4.79687 15.4531 2 12 2C8.54687 2 5.75 4.79687 5.75 8.25C5.75 11.7031 8.54687 14.5 12 14.5ZM12 3.875C14.4141 3.875 16.375 5.83594 16.375 8.25C16.375 10.6641 14.4141 12.625 12 12.625C9.58594 12.625 7.625 10.6641 7.625 8.25C7.625 5.83594 9.58594 3.875 12 3.875Z" fill="currentColor"></path>
  </symbol>
</svg>